<svg width="20" height="20" viewBox="0 0 20 20" fill="none" xmlns="http://www.w3.org/2000/svg">
<g clip-path="url()">
<path d="M0.0333347 5.72425C0.108335 5.50759 0.3 5.34092 0.533334 5.30759L4.99167 4.62425L6.99167 0.365918C7.19167 -0.0757487 7.91667 -0.0757487 8.11667 0.365918L10.1167 4.62425L10.75 4.72425L9.03333 8.38259L5.23333 8.96592C4.53333 9.07425 3.95833 9.54925 3.74167 10.2243C3.51667 10.8909 3.68333 11.6243 4.175 12.1243L5.80833 13.8076L3.575 15.0409C3.48333 15.0909 3.375 15.1159 3.275 15.1159C3.14167 15.1159 3.01667 15.0743 2.90833 14.9993C2.71667 14.8659 2.61667 14.6243 2.65833 14.3909L3.425 9.69092L0.175 6.36592C0.0166664 6.19092 -0.0416651 5.94925 0.0333347 5.72425Z" fill="white"/>
<path d="M8.16289 20.0076C8.26706 20.0076 8.37123 19.9818 8.46539 19.9293L12.4454 17.7293L16.4254 19.9293C16.6346 20.0459 16.8921 20.0309 17.0879 19.8934C17.2837 19.7551 17.3829 19.5176 17.3446 19.2818L16.5779 14.5784L19.8221 11.2534C19.9854 11.0859 20.0421 10.8401 19.9679 10.6184C19.8937 10.3959 19.7012 10.2351 19.4696 10.1993L15.0112 9.5176L13.0112 5.2576C12.9079 5.03844 12.6871 4.89844 12.4454 4.89844C12.2029 4.89844 11.9829 5.03844 11.8796 5.2576L9.88039 9.5176L5.42206 10.1993C5.19039 10.2343 4.99789 10.3959 4.92373 10.6184C4.84956 10.8409 4.90623 11.0859 5.06956 11.2534L8.31373 14.5784L7.54706 19.2818C7.50873 19.5176 7.60873 19.7551 7.80373 19.8934C7.91039 19.9693 8.03623 20.0076 8.16289 20.0076Z" fill="white"/>
</g>
<defs>
<clipPath>
<rect width="20" height="20" fill="white" transform="matrix(-1 0 0 1 20 0)"/>
</clipPath>
</defs>
</svg>
