<svg width="212" height="212" viewBox="0 0 212 212" fill="none" xmlns="http://www.w3.org/2000/svg">
<rect width="212" height="212" rx="4" fill="#200437"/>
<path fill-rule="evenodd" clip-rule="evenodd" d="M81.0001 0H8L69.5808 106.661L8.76343 212H81.7635L106.081 169.881L130.398 212H203.398L142.581 106.661L204.162 0H131.162L106.081 43.4412L81.0001 0Z" fill="#C32CE2" fill-opacity="0.1"/>
<path fill-rule="evenodd" clip-rule="evenodd" d="M58.5684 63.0964C57.9212 63.2196 57.6133 63.3769 56.7911 64.0039C55.4855 64.9995 53.7999 67.1756 53.1096 68.7563C51.2002 73.129 49.2688 82.2212 48.2652 91.5604C48.0276 93.7717 47.9984 94.6623 48.0001 99.678C48.0025 106.813 48.1906 109.716 48.9579 114.459C50.2736 122.593 52.1303 128.672 55.1926 134.874C56.347 137.212 57.3139 138.58 59.304 140.69C62.6516 144.239 66.5477 146.544 70.6697 147.413C72.483 147.795 73.9132 147.926 76.438 147.942C78.7667 147.956 78.8688 147.946 80.3801 147.56C82.8344 146.932 84.7766 146.227 86.6525 145.282C88.6627 144.27 90.359 143.143 93.9491 140.434C99.8405 135.989 102.461 134.202 103.628 133.833C104.621 133.519 107.534 133.377 108.552 133.593C110.107 133.923 112.43 135.405 117.975 139.605C124.612 144.633 126.673 145.807 131.17 147.124C134.64 148.14 138.235 148.272 141.94 147.522C146.83 146.531 151.392 143.615 155.095 139.116C157.611 136.058 160.104 130.621 161.897 124.277C163.325 119.227 164.438 112.976 164.852 107.674C165.051 105.136 165.049 94.9817 164.849 92.5902C164.15 84.2148 161.835 73.1295 159.895 68.8749C158.825 66.5265 156.91 64.2428 155.372 63.4804C154.289 62.9435 153.658 62.8677 153.019 63.1977C152.095 63.6757 151.298 64.9217 148.75 69.8731C145.915 75.3834 145.21 76.5714 144.26 77.4414C142.983 78.6103 141.525 79.2675 139.914 79.3999C138.948 79.4793 137.875 79.2797 132.925 78.1009C125.052 76.2257 118.988 75.1242 114.269 74.7124C110.097 74.3484 100.784 74.4545 96.9429 74.9099C92.6389 75.4202 86.6742 76.5332 81.3985 77.8103C76.0994 79.0931 74.4471 79.378 72.7436 79.3025C71.7404 79.258 71.5293 79.2052 70.7046 78.7921C69.0447 77.9604 67.6591 76.3605 66.0759 73.4473C65.7137 72.7809 64.7324 70.8766 63.895 69.2153C61.9454 65.3475 61.1294 63.9729 60.5281 63.5431C59.9988 63.165 59.1838 62.9791 58.5684 63.0964ZM78.9043 111.852C84.8798 112.649 91.0247 115.693 93.7745 119.218C94.9653 120.744 95.5759 122.202 95.9528 124.419L96.1526 125.595L95.8576 125.914C95.4769 126.327 93.7082 127.196 92.3354 127.644C90.346 128.294 89.9523 128.332 85.1039 128.332C81.1708 128.332 80.5269 128.305 79.8489 128.116C77.0316 127.327 74.4267 125.673 71.703 122.94C69.457 120.687 68.1023 118.74 67.2805 116.584C66.5876 114.766 66.6512 113.767 67.5158 112.89C68.0278 112.371 68.1821 112.293 69.1824 112.042C69.7886 111.89 70.8085 111.722 71.4489 111.667C73.0663 111.53 77.272 111.634 78.9043 111.852ZM141.442 111.854C143.71 112.336 144.787 113.395 144.574 114.935C144.041 118.794 139.064 124.639 134.29 127.011C132.076 128.111 130.01 128.514 126.581 128.512C121.974 128.51 118.852 127.913 116.52 126.59L115.524 126.025L115.531 124.816C115.547 122.329 116.539 120.243 118.768 118.013C121.643 115.137 126.247 112.954 131.5 111.976C133.779 111.552 139.678 111.479 141.442 111.854Z" fill="#C32CE2"/>
<path fill-rule="evenodd" clip-rule="evenodd" d="M58.5684 63.0964C57.9212 63.2196 57.6133 63.3769 56.7911 64.0039C55.4855 64.9995 53.7999 67.1756 53.1096 68.7563C51.2002 73.129 49.2688 82.2212 48.2652 91.5604C48.0276 93.7717 47.9984 94.6623 48.0001 99.678C48.0025 106.813 48.1906 109.716 48.9579 114.459C50.2736 122.593 52.1303 128.672 55.1926 134.874C56.347 137.212 57.3139 138.58 59.304 140.69C62.6516 144.239 66.5477 146.544 70.6697 147.413C72.483 147.795 73.9132 147.926 76.438 147.942C78.7667 147.956 78.8688 147.946 80.3801 147.56C82.8344 146.932 84.7766 146.227 86.6525 145.282C88.6627 144.27 90.359 143.143 93.9491 140.434C99.8405 135.989 102.461 134.202 103.628 133.833C104.621 133.519 107.534 133.377 108.552 133.593C110.107 133.923 112.43 135.405 117.975 139.605C124.612 144.633 126.673 145.807 131.17 147.124C134.64 148.14 138.235 148.272 141.94 147.522C146.83 146.531 151.392 143.615 155.095 139.116C157.611 136.058 160.104 130.621 161.897 124.277C163.325 119.227 164.438 112.976 164.852 107.674C165.051 105.136 165.049 94.9817 164.849 92.5902C164.15 84.2148 161.835 73.1295 159.895 68.8749C158.825 66.5265 156.91 64.2428 155.372 63.4804C154.289 62.9435 153.658 62.8677 153.019 63.1977C152.095 63.6757 151.298 64.9217 148.75 69.8731C145.915 75.3834 145.21 76.5714 144.26 77.4414C142.983 78.6103 141.525 79.2675 139.914 79.3999C138.948 79.4793 137.875 79.2797 132.925 78.1009C125.052 76.2257 118.988 75.1242 114.269 74.7124C110.097 74.3484 100.784 74.4545 96.9429 74.9099C92.6389 75.4202 86.6742 76.5332 81.3985 77.8103C76.0994 79.0931 74.4471 79.378 72.7436 79.3025C71.7404 79.258 71.5293 79.2052 70.7046 78.7921C69.0447 77.9604 67.6591 76.3605 66.0759 73.4473C65.7137 72.7809 64.7324 70.8766 63.895 69.2153C61.9454 65.3475 61.1294 63.9729 60.5281 63.5431C59.9988 63.165 59.1838 62.9791 58.5684 63.0964ZM78.9043 111.852C84.8798 112.649 91.0247 115.693 93.7745 119.218C94.9653 120.744 95.5759 122.202 95.9528 124.419L96.1526 125.595L95.8576 125.914C95.4769 126.327 93.7082 127.196 92.3354 127.644C90.346 128.294 89.9523 128.332 85.1039 128.332C81.1708 128.332 80.5269 128.305 79.8489 128.116C77.0316 127.327 74.4267 125.673 71.703 122.94C69.457 120.687 68.1023 118.74 67.2805 116.584C66.5876 114.766 66.6512 113.767 67.5158 112.89C68.0278 112.371 68.1821 112.293 69.1824 112.042C69.7886 111.89 70.8085 111.722 71.4489 111.667C73.0663 111.53 77.272 111.634 78.9043 111.852ZM141.442 111.854C143.71 112.336 144.787 113.395 144.574 114.935C144.041 118.794 139.064 124.639 134.29 127.011C132.076 128.111 130.01 128.514 126.581 128.512C121.974 128.51 118.852 127.913 116.52 126.59L115.524 126.025L115.531 124.816C115.547 122.329 116.539 120.243 118.768 118.013C121.643 115.137 126.247 112.954 131.5 111.976C133.779 111.552 139.678 111.479 141.442 111.854Z" fill="#C32CE2" fill-opacity="0.5"/>
<path fill-rule="evenodd" clip-rule="evenodd" d="M58.5684 63.0964C57.9212 63.2196 57.6133 63.3769 56.7911 64.0039C55.4855 64.9995 53.7999 67.1756 53.1096 68.7563C51.2002 73.129 49.2688 82.2212 48.2652 91.5604C48.0276 93.7717 47.9984 94.6623 48.0001 99.678C48.0025 106.813 48.1906 109.716 48.9579 114.459C50.2736 122.593 52.1303 128.672 55.1926 134.874C56.347 137.212 57.3139 138.58 59.304 140.69C62.6516 144.239 66.5477 146.544 70.6697 147.413C72.483 147.795 73.9132 147.926 76.438 147.942C78.7667 147.956 78.8688 147.946 80.3801 147.56C82.8344 146.932 84.7766 146.227 86.6525 145.282C88.6627 144.27 90.359 143.143 93.9491 140.434C99.8405 135.989 102.461 134.202 103.628 133.833C104.621 133.519 107.534 133.377 108.552 133.593C110.107 133.923 112.43 135.405 117.975 139.605C124.612 144.633 126.673 145.807 131.17 147.124C134.64 148.14 138.235 148.272 141.94 147.522C146.83 146.531 151.392 143.615 155.095 139.116C157.611 136.058 160.104 130.621 161.897 124.277C163.325 119.227 164.438 112.976 164.852 107.674C165.051 105.136 165.049 94.9817 164.849 92.5902C164.15 84.2148 161.835 73.1295 159.895 68.8749C158.825 66.5265 156.91 64.2428 155.372 63.4804C154.289 62.9435 153.658 62.8677 153.019 63.1977C152.095 63.6757 151.298 64.9217 148.75 69.8731C145.915 75.3834 145.21 76.5714 144.26 77.4414C142.983 78.6103 141.525 79.2675 139.914 79.3999C138.948 79.4793 137.875 79.2797 132.925 78.1009C125.052 76.2257 118.988 75.1242 114.269 74.7124C110.097 74.3484 100.784 74.4545 96.9429 74.9099C92.6389 75.4202 86.6742 76.5332 81.3985 77.8103C76.0994 79.0931 74.4471 79.378 72.7436 79.3025C71.7404 79.258 71.5293 79.2052 70.7046 78.7921C69.0447 77.9604 67.6591 76.3605 66.0759 73.4473C65.7137 72.7809 64.7324 70.8766 63.895 69.2153C61.9454 65.3475 61.1294 63.9729 60.5281 63.5431C59.9988 63.165 59.1838 62.9791 58.5684 63.0964ZM78.9043 111.852C84.8798 112.649 91.0247 115.693 93.7745 119.218C94.9653 120.744 95.5759 122.202 95.9528 124.419L96.1526 125.595L95.8576 125.914C95.4769 126.327 93.7082 127.196 92.3354 127.644C90.346 128.294 89.9523 128.332 85.1039 128.332C81.1708 128.332 80.5269 128.305 79.8489 128.116C77.0316 127.327 74.4267 125.673 71.703 122.94C69.457 120.687 68.1023 118.74 67.2805 116.584C66.5876 114.766 66.6512 113.767 67.5158 112.89C68.0278 112.371 68.1821 112.293 69.1824 112.042C69.7886 111.89 70.8085 111.722 71.4489 111.667C73.0663 111.53 77.272 111.634 78.9043 111.852ZM141.442 111.854C143.71 112.336 144.787 113.395 144.574 114.935C144.041 118.794 139.064 124.639 134.29 127.011C132.076 128.111 130.01 128.514 126.581 128.512C121.974 128.51 118.852 127.913 116.52 126.59L115.524 126.025L115.531 124.816C115.547 122.329 116.539 120.243 118.768 118.013C121.643 115.137 126.247 112.954 131.5 111.976C133.779 111.552 139.678 111.479 141.442 111.854Z" fill="url(#paint0_linear)"/>
<defs>
<linearGradient id="paint0_linear" x1="79.4282" y1="68.8369" x2="159.667" y2="207.876" gradientUnits="userSpaceOnUse">
<stop stop-color="#BA25D6"/>
<stop offset="1" stop-color="#200437"/>
</linearGradient>
</defs>
</svg>
