<svg width="20" height="18" viewBox="0 0 20 18" fill="none" xmlns="http://www.w3.org/2000/svg">
<path d="M19.7367 5.88184C19.5454 5.672 19.2746 5.55229 18.9906 5.55229H1.00938C0.725445 5.55229 0.454532 5.672 0.263258 5.88184C0.0719842 6.09169 -0.0219874 6.37249 0.00435694 6.65522L0.963755 16.9607C1.0121 17.4797 1.44754 17.8765 1.96878 17.8765H18.0312C18.5524 17.8765 18.9878 17.4796 19.0362 16.9607L19.9956 6.65522C20.0219 6.37249 19.9279 6.09169 19.7367 5.88184ZM13.3666 15.7628H13.3646H6.63546C6.07799 15.7628 5.6261 15.3108 5.6261 14.7534C5.6261 13.3827 6.74124 12.2676 8.11195 12.2676H8.83637C8.09136 11.856 7.58547 11.0624 7.58547 10.1528C7.58547 8.82141 8.66862 7.73816 10.0001 7.73816C11.3315 7.73816 12.4147 8.82131 12.4147 10.1528C12.4147 11.0624 11.9088 11.856 11.1638 12.2676H11.8882C13.2309 12.2676 14.3284 13.3378 14.3726 14.6701C14.3748 14.6975 14.3761 14.7254 14.3761 14.7534C14.376 15.3109 13.9241 15.7628 13.3666 15.7628ZM18.0581 3.67316C18.0581 4.09134 17.7192 4.43018 17.3011 4.43018H2.69895C2.28087 4.43018 1.94193 4.09134 1.94193 3.67316C1.94193 3.25498 2.28087 2.91614 2.69895 2.91614C8.40144 2.91614 11.5986 2.91614 17.3011 2.91614C17.7192 2.91614 18.0581 3.25498 18.0581 3.67316ZM16.0596 0.880557C16.0596 1.29874 15.7206 1.63758 15.3025 1.63758H4.69749C4.27941 1.63758 3.94046 1.29874 3.94046 0.880557C3.94046 0.462378 4.27941 0.123535 4.69749 0.123535H15.3024C15.7206 0.123535 16.0596 0.462378 16.0596 0.880557Z" fill="white"/>
</svg>
