<svg width="26" height="22" viewBox="0 0 26 22" fill="none" xmlns="http://www.w3.org/2000/svg">
<rect x="0.400391" width="25" height="22" rx="4" fill="#C32CE2"/>
<path fill-rule="evenodd" clip-rule="evenodd" d="M18.5133 5.06928C18.2204 4.77639 17.7455 4.77639 17.4526 5.06928L12.8996 9.62232L8.34662 5.06935C8.05373 4.77646 7.57886 4.77646 7.28596 5.06935C6.99307 5.36224 6.99307 5.83712 7.28596 6.13001L11.8389 10.683L6.65131 15.8706C6.35842 16.1635 6.35842 16.6384 6.65131 16.9313C6.9442 17.2242 7.41908 17.2242 7.71197 16.9313L12.8996 11.7436L18.0873 16.9313C18.3802 17.2242 18.8551 17.2242 19.148 16.9313C19.4408 16.6384 19.4408 16.1636 19.148 15.8707L13.9603 10.683L18.5133 6.12994C18.8062 5.83705 18.8062 5.36217 18.5133 5.06928Z" fill="white"/>
</svg>
