<svg width="19" height="20" viewBox="0 0 19 20" fill="none" xmlns="http://www.w3.org/2000/svg">
<path d="M11.5 9C13.4329 9 15 6.98526 15 4.50003C15 2.01474 14.4854 0 11.5 0C8.51448 0 8 2.01474 8 4.50003C8.00005 6.98526 9.56709 9 11.5 9Z" fill="white"/>
<path d="M18.9915 17.0044C18.9181 12.2243 18.312 10.8622 13.6745 10C13.6745 10 13.0216 10.8569 11.5001 10.8569C9.97852 10.8569 9.32572 10 9.32572 10C4.7388 10.8527 4.09581 12.1947 4.0113 16.8491C4.00442 17.2292 4.00126 17.2491 4 17.205C4.00024 17.2876 4.0006 17.4405 4.0006 17.7072C4.0006 17.7072 5.10471 20 11.5001 20C17.8955 20 18.9998 17.7072 18.9998 17.7072C18.9998 17.5359 18.9999 17.4167 19 17.3357C18.9987 17.363 18.9962 17.3101 18.9915 17.0044Z" fill="white"/>
<path d="M6.43334 9C6.99794 9 7.53008 8.84028 8 8.55898C7.3166 7.521 6.94551 6.2674 6.94551 4.95435C6.94551 3.79461 7.03822 2.3418 7.71455 1.14575C7.34995 1.05084 6.9261 1 6.43334 1C3.50459 1 3 2.79087 3 5.00006C3 7.20913 4.5372 9 6.43334 9Z" fill="white"/>
<path d="M6 9.7051C5.95322 9.70742 5.90559 9.70905 5.85634 9.70905C4.6682 9.70905 4.15843 9 4.15843 9C0.537237 9.71344 0.0639582 10.8404 0.00660844 14.7956C0.00287323 15.0504 0.000976899 15.0926 0 15.0689C0.000114929 15.136 0.000229859 15.2341 0.000229859 15.3771C0.000229859 15.3771 0.499598 16.4745 2.93575 17C2.97742 14.4175 3.17831 12.6595 4.05275 11.3508C4.55844 10.594 5.24509 10.0766 6 9.7051Z" fill="white"/>
</svg>
