<svg width="22" height="22" viewBox="0 0 22 22" fill="none" xmlns="http://www.w3.org/2000/svg">
<rect width="22" height="22" rx="4" fill="#1E2739" fill-opacity="0.8"/>
<path d="M15.0409 5.58241H13.5417V5.50391C13.5417 4.67462 12.8671 4 12.0378 4H9.95624C9.12695 4 8.45233 4.67462 8.45233 5.50391V5.58241H6.95312C6.50014 5.58241 6.13281 5.94963 6.13281 6.40273V7.028C6.13281 7.17903 6.25522 7.30144 6.40625 7.30144H15.5878C15.7388 7.30144 15.8612 7.17903 15.8612 7.028V6.40273C15.8612 5.94963 15.494 5.58241 15.0409 5.58241ZM9.27264 5.50391C9.27264 5.12697 9.5793 4.82031 9.95624 4.82031H12.0378C12.4147 4.82031 12.7214 5.12697 12.7214 5.50391V5.58241H9.27264V5.50391Z" fill="white" fill-opacity="0.5"/>
<path d="M6.48438 8.12109L7.14714 17.6177C7.1622 17.8326 7.3409 17.9993 7.55634 17.9993H14.4328C14.6482 17.9993 14.8269 17.8326 14.8418 17.6177L15.5045 8.12109H6.48438ZM9.37128 16.6044C9.3654 16.6047 9.35942 16.6048 9.35355 16.6048C9.13512 16.6048 8.95343 16.4324 8.94414 16.2121L8.6707 9.78629C8.66098 9.55995 8.83668 9.36865 9.06302 9.35904C9.28946 9.34975 9.48065 9.52513 9.49026 9.75146L9.7637 16.1772C9.77331 16.4036 9.59761 16.5948 9.37128 16.6044ZM11.4046 16.1947C11.4046 16.4212 11.221 16.6048 10.9945 16.6048C10.7679 16.6048 10.5843 16.4212 10.5843 16.1947V9.76887C10.5843 9.54233 10.7679 9.35872 10.9945 9.35872C11.221 9.35872 11.4046 9.54233 11.4046 9.76887V16.1947ZM13.045 16.2121C13.0356 16.4325 12.8539 16.6048 12.6354 16.6048C12.6296 16.6048 12.6236 16.6047 12.6177 16.6045C12.3914 16.5949 12.2157 16.4036 12.2253 16.1772L12.4987 9.75146C12.5084 9.52513 12.7 9.34953 12.926 9.35915C13.1523 9.36876 13.328 9.55995 13.3184 9.78629L13.045 16.2121Z" fill="white" fill-opacity="0.5"/>
</svg>
