<svg width="61" height="22" viewBox="0 0 61 22" fill="none" xmlns="http://www.w3.org/2000/svg">
<rect x="0.400391" width="60" height="22" rx="4" fill="#C32CE2"/>
<path d="M16.4413 5.58241H14.9421V5.50391C14.9421 4.67462 14.2675 4 13.4382 4H11.3566C10.5273 4 9.85272 4.67462 9.85272 5.50391V5.58241H8.35352C7.90053 5.58241 7.5332 5.94963 7.5332 6.40273V7.028C7.5332 7.17903 7.65561 7.30144 7.80664 7.30144H16.9882C17.1392 7.30144 17.2616 7.17903 17.2616 7.028V6.40273C17.2616 5.94963 16.8944 5.58241 16.4413 5.58241ZM10.673 5.50391C10.673 5.12697 10.9797 4.82031 11.3566 4.82031H13.4382C13.8151 4.82031 14.1218 5.12697 14.1218 5.50391V5.58241H10.673V5.50391Z" fill="white"/>
<path d="M7.88477 8.12109L8.54753 17.6177C8.56259 17.8326 8.74129 17.9993 8.95673 17.9993H15.8331C16.0486 17.9993 16.2273 17.8326 16.2422 17.6177L16.9049 8.12109H7.88477ZM10.7717 16.6044C10.7658 16.6047 10.7598 16.6048 10.7539 16.6048C10.5355 16.6048 10.3538 16.4324 10.3445 16.2121L10.0711 9.78629C10.0614 9.55995 10.2371 9.36865 10.4634 9.35904C10.6898 9.34975 10.881 9.52513 10.8907 9.75146L11.1641 16.1772C11.1737 16.4036 10.998 16.5948 10.7717 16.6044ZM12.805 16.1947C12.805 16.4212 12.6214 16.6048 12.3949 16.6048C12.1683 16.6048 11.9847 16.4212 11.9847 16.1947V9.76887C11.9847 9.54233 12.1683 9.35872 12.3949 9.35872C12.6214 9.35872 12.805 9.54233 12.805 9.76887V16.1947ZM14.4453 16.2121C14.4359 16.4325 14.2543 16.6048 14.0358 16.6048C14.03 16.6048 14.024 16.6047 14.0181 16.6045C13.7918 16.5949 13.6161 16.4036 13.6257 16.1772L13.8991 9.75146C13.9088 9.52513 14.1003 9.34953 14.3264 9.35915C14.5527 9.36876 14.7284 9.55995 14.7188 9.78629L14.4453 16.2121Z" fill="white"/>
<path d="M22.582 15V6.46875H24.9902C25.7324 6.46875 26.3887 6.63281 26.959 6.96094C27.5293 7.28906 27.9688 7.75586 28.2773 8.36133C28.5898 8.9668 28.748 9.66211 28.752 10.4473V10.9922C28.752 11.7969 28.5957 12.502 28.2832 13.1074C27.9746 13.7129 27.5312 14.1777 26.9531 14.502C26.3789 14.8262 25.709 14.9922 24.9434 15H22.582ZM23.707 7.39453V14.0801H24.8906C25.7578 14.0801 26.4316 13.8105 26.9121 13.2715C27.3965 12.7324 27.6387 11.9648 27.6387 10.9688V10.4707C27.6387 9.50195 27.4102 8.75 26.9531 8.21484C26.5 7.67578 25.8555 7.40234 25.0195 7.39453H23.707ZM32.918 15.1172C32.0586 15.1172 31.3594 14.8359 30.8203 14.2734C30.2812 13.707 30.0117 12.9512 30.0117 12.0059V11.8066C30.0117 11.1777 30.1309 10.6172 30.3691 10.125C30.6113 9.62891 30.9473 9.24219 31.377 8.96484C31.8105 8.68359 32.2793 8.54297 32.7832 8.54297C33.6074 8.54297 34.248 8.81445 34.7051 9.35742C35.1621 9.90039 35.3906 10.6777 35.3906 11.6895V12.1406H31.0957C31.1113 12.7656 31.293 13.2715 31.6406 13.6582C31.9922 14.041 32.4375 14.2324 32.9766 14.2324C33.3594 14.2324 33.6836 14.1543 33.9492 13.998C34.2148 13.8418 34.4473 13.6348 34.6465 13.377L35.3086 13.8926C34.7773 14.709 33.9805 15.1172 32.918 15.1172ZM32.7832 9.43359C32.3457 9.43359 31.9785 9.59375 31.6816 9.91406C31.3848 10.2305 31.2012 10.6758 31.1309 11.25H34.3066V11.168C34.2754 10.6172 34.127 10.1914 33.8613 9.89062C33.5957 9.58594 33.2363 9.43359 32.7832 9.43359ZM37.8281 15H36.7441V6H37.8281V15ZM42.1992 15.1172C41.3398 15.1172 40.6406 14.8359 40.1016 14.2734C39.5625 13.707 39.293 12.9512 39.293 12.0059V11.8066C39.293 11.1777 39.4121 10.6172 39.6504 10.125C39.8926 9.62891 40.2285 9.24219 40.6582 8.96484C41.0918 8.68359 41.5605 8.54297 42.0645 8.54297C42.8887 8.54297 43.5293 8.81445 43.9863 9.35742C44.4434 9.90039 44.6719 10.6777 44.6719 11.6895V12.1406H40.377C40.3926 12.7656 40.5742 13.2715 40.9219 13.6582C41.2734 14.041 41.7188 14.2324 42.2578 14.2324C42.6406 14.2324 42.9648 14.1543 43.2305 13.998C43.4961 13.8418 43.7285 13.6348 43.9277 13.377L44.5898 13.8926C44.0586 14.709 43.2617 15.1172 42.1992 15.1172ZM42.0645 9.43359C41.627 9.43359 41.2598 9.59375 40.9629 9.91406C40.666 10.2305 40.4824 10.6758 40.4121 11.25H43.5879V11.168C43.5566 10.6172 43.4082 10.1914 43.1426 9.89062C42.877 9.58594 42.5176 9.43359 42.0645 9.43359ZM47.4023 7.125V8.66016H48.5859V9.49805H47.4023V13.4297C47.4023 13.6836 47.4551 13.875 47.5605 14.0039C47.666 14.1289 47.8457 14.1914 48.0996 14.1914C48.2246 14.1914 48.3965 14.168 48.6152 14.1211V15C48.3301 15.0781 48.0527 15.1172 47.7832 15.1172C47.2988 15.1172 46.9336 14.9707 46.6875 14.6777C46.4414 14.3848 46.3184 13.9688 46.3184 13.4297V9.49805H45.1641V8.66016H46.3184V7.125H47.4023ZM52.4883 15.1172C51.6289 15.1172 50.9297 14.8359 50.3906 14.2734C49.8516 13.707 49.582 12.9512 49.582 12.0059V11.8066C49.582 11.1777 49.7012 10.6172 49.9395 10.125C50.1816 9.62891 50.5176 9.24219 50.9473 8.96484C51.3809 8.68359 51.8496 8.54297 52.3535 8.54297C53.1777 8.54297 53.8184 8.81445 54.2754 9.35742C54.7324 9.90039 54.9609 10.6777 54.9609 11.6895V12.1406H50.666C50.6816 12.7656 50.8633 13.2715 51.2109 13.6582C51.5625 14.041 52.0078 14.2324 52.5469 14.2324C52.9297 14.2324 53.2539 14.1543 53.5195 13.998C53.7852 13.8418 54.0176 13.6348 54.2168 13.377L54.8789 13.8926C54.3477 14.709 53.5508 15.1172 52.4883 15.1172ZM52.3535 9.43359C51.916 9.43359 51.5488 9.59375 51.252 9.91406C50.9551 10.2305 50.7715 10.6758 50.7012 11.25H53.877V11.168C53.8457 10.6172 53.6973 10.1914 53.4316 9.89062C53.166 9.58594 52.8066 9.43359 52.3535 9.43359Z" fill="white"/>
</svg>
