<svg width="20" height="20" viewBox="0 0 20 20" fill="none" xmlns="http://www.w3.org/2000/svg">
<g clip-path="url()">
<path d="M15.3426 10.3128C14.9753 10.3128 14.6774 10.015 14.6774 9.64761C14.6774 9.28024 14.9753 8.98242 15.3426 8.98242C15.71 8.98242 16.0078 9.28024 16.0078 9.64761C16.0078 10.015 15.71 10.3128 15.3426 10.3128Z" fill="white"/>
<path d="M13.5422 15.4392C13.8021 15.6991 14.223 15.6991 14.4829 15.4392L15.3429 14.5792L19.0586 18.2949H3.64497L10.0214 11.9185L13.5422 15.4392Z" fill="white"/>
<path d="M15.814 13.1684C15.5542 12.9085 15.1332 12.9085 14.8734 13.1684L14.0133 14.0284L10.4925 10.5076C10.2327 10.2477 9.81169 10.2477 9.55187 10.5076L2.70514 17.3543V5.6564C2.70514 5.28873 3.00266 4.99121 3.37033 4.99121H19.3348C19.7025 4.99121 20 5.28873 20 5.6564V17.3543L15.814 13.1684ZM15.3437 7.65196C14.2433 7.65196 13.3481 8.54712 13.3481 9.64752C13.3481 10.7479 14.2433 11.6431 15.3437 11.6431C16.4441 11.6431 17.3393 10.7479 17.3393 9.64752C17.3393 8.54712 16.4441 7.65196 15.3437 7.65196Z" fill="white"/>
<path d="M0.665825 1H16.6747C17.0423 1 17.3398 1.29752 17.3398 1.66519V3.66075H3.37092C2.27052 3.66075 1.37536 4.55591 1.37536 5.65631V14.3037H0.665825C0.298155 14.3037 0.000638962 14.0062 0.000638962 13.6386V1.66519C0.000638962 1.29752 0.298155 1 0.665825 1Z" fill="white"/>
</g>
<defs>
<clipPath>
<rect width="20" height="20" fill="white" transform="matrix(-1 0 0 1 20 0)"/>
</clipPath>
</defs>
</svg>
