<svg width="20" height="20" viewBox="0 0 20 20" fill="none" xmlns="http://www.w3.org/2000/svg">
<g clip-path="url()">
<path d="M17.3447 2.6543H11.8086C11.2768 2.6543 10.777 2.86137 10.401 3.23738L2.57137 11.067C2.19535 11.443 1.98828 11.9429 1.98828 12.4746C1.98828 13.0063 2.19535 13.5062 2.57137 13.8822L8.10746 19.4181C8.49551 19.8062 9.00527 20.0002 9.515 20.0002C10.0247 20.0002 10.5345 19.8061 10.9225 19.4181L18.7522 11.5884C19.1282 11.2124 19.3353 10.7125 19.3353 10.1808V4.64485C19.3353 3.54727 18.4423 2.6543 17.3447 2.6543ZM14.6906 9.28962C13.593 9.28962 12.7 8.39665 12.7 7.29903C12.7 6.20141 13.593 5.30844 14.6906 5.30844C15.7882 5.30844 16.6812 6.20141 16.6812 7.29903C16.6812 8.39665 15.7882 9.28962 14.6906 9.28962Z" fill="white"/>
<path d="M16.0205 0H10.4843C9.95258 0 9.45274 0.20707 9.07676 0.583086L1.24715 8.41273C0.871133 8.78871 0.664062 9.28859 0.664062 9.82031C0.664062 10.2362 0.79125 10.6323 1.02641 10.9652C1.18262 10.6602 1.38652 10.3777 1.6359 10.1284L9.46547 2.29879C10.0921 1.67219 10.9252 1.32707 11.8114 1.32707H17.3475C17.5405 1.32707 17.7295 1.34457 17.9136 1.37641C17.6541 0.578516 16.9038 0 16.0205 0Z" fill="white"/>
</g>
<defs>
<clipPath>
<rect width="20" height="20" fill="white"/>
</clipPath>
</defs>
</svg>
