<svg width="15" height="16" viewBox="0 0 15 16" fill="none" xmlns="http://www.w3.org/2000/svg">
<g clip-path="url()">
<path d="M11.8295 2.19544H10.2232V2.11133C10.2232 1.22281 9.50043 0.5 8.61191 0.5H6.38168C5.49316 0.5 4.77036 1.22281 4.77036 2.11133V2.19544H3.16406C2.67872 2.19544 2.28516 2.58889 2.28516 3.07435V3.74429C2.28516 3.90611 2.41631 4.03725 2.57812 4.03725H12.4155C12.5773 4.03725 12.7084 3.90611 12.7084 3.74429V3.07435C12.7084 2.58889 12.315 2.19544 11.8295 2.19544ZM5.64926 2.11133C5.64926 1.70747 5.97782 1.37891 6.38168 1.37891H8.61191C9.01577 1.37891 9.34433 1.70747 9.34433 2.11133V2.19544H5.64926V2.11133Z" fill="white"/>
<path d="M2.66406 4.91602L3.37417 15.091C3.3903 15.3212 3.58176 15.4999 3.81259 15.4999H11.1802C11.411 15.4999 11.6025 15.3212 11.6185 15.091L12.3285 4.91602H2.66406ZM5.75717 14.0053C5.75088 14.0056 5.74447 14.0057 5.73817 14.0057C5.50414 14.0057 5.30948 13.821 5.29952 13.5849L5.00655 6.70015C4.99614 6.45765 5.18439 6.25269 5.4269 6.24239C5.66951 6.23243 5.87436 6.42034 5.88466 6.66284L6.17763 13.5476C6.18793 13.7901 5.99967 13.995 5.75717 14.0053ZM7.93578 13.5663C7.93578 13.809 7.73906 14.0057 7.49633 14.0057C7.2536 14.0057 7.05688 13.809 7.05688 13.5663V6.68149C7.05688 6.43877 7.2536 6.24204 7.49633 6.24204C7.73906 6.24204 7.93578 6.43877 7.93578 6.68149V13.5663ZM9.69325 13.5849C9.68318 13.8211 9.48852 14.0057 9.25449 14.0057C9.24819 14.0057 9.24178 14.0056 9.23549 14.0054C8.99299 13.9951 8.80473 13.7901 8.81503 13.5476L9.108 6.66284C9.11842 6.42034 9.32361 6.2322 9.56577 6.2425C9.80827 6.2528 9.99652 6.45765 9.98622 6.70015L9.69325 13.5849Z" fill="white"/>
</g>
<defs>
<clipPath>
<rect width="15" height="15" fill="white" transform="translate(0 0.5)"/>
</clipPath>
</defs>
</svg>
